<svg width="33" height="34" viewBox="0 0 33 34" fill="none" xmlns="http://www.w3.org/2000/svg">
<path d="M24.7722 13.2894V22.9822C24.7722 23.391 24.4408 23.7224 24.032 23.7224H15.1687V12.5492H24.032C24.4408 12.5492 24.7722 12.8806 24.7722 13.2894Z" fill="#351568"/>
<path d="M4.88916 22.9833V12.3796V10.1609C4.88916 9.75207 5.22057 9.42065 5.62939 9.42065H12.3159C12.5411 9.42065 12.7541 9.52317 12.8945 9.6992L15.1685 12.5492V23.7224H5.62939C5.22057 23.7224 4.88916 23.3922 4.88916 22.9833Z" fill="#692ACE"/>
<path d="M7.93882 15.2418L4.86369 22.6999C4.66279 23.1871 5.021 23.7223 5.54803 23.7223H15.3822L18.297 14.7837H8.62316C8.32333 14.7837 8.05311 14.9646 7.93882 15.2418Z" fill="#0FC4BF"/>
<path d="M25.0676 23.2343L27.7698 15.7762C27.9447 15.2936 27.5872 14.7838 27.0739 14.7838H17.6363L14.7215 23.7224H24.3717C24.6832 23.7224 24.9615 23.5273 25.0676 23.2343Z" fill="#0273AF"/>
</svg>
