<svg width="34" height="34" viewBox="0 0 34 34" fill="none" xmlns="http://www.w3.org/2000/svg">
<circle cx="8.53032" cy="14.2113" r="2.62932" fill="#999999"/>
<circle cx="25.6209" cy="14.2113" r="2.62932" fill="#808080"/>
<path d="M5.24365 20.3747C5.24365 19.1495 6.2369 18.1562 7.46214 18.1562H9.59846C10.8237 18.1562 11.8169 19.1495 11.8169 20.3747V26.7015H5.24365V20.3747Z" fill="#999999"/>
<path d="M22.3342 20.3747C22.3342 19.1495 23.3275 18.1562 24.5527 18.1562H26.689C27.9143 18.1562 28.9075 19.1495 28.9075 20.3747V26.7015H22.3342V20.3747Z" fill="#808080"/>
<path d="M17.0756 7.63898C16.5415 7.63898 16.0126 7.74419 15.5191 7.94858C15.0257 8.15298 14.5773 8.45257 14.1996 8.83025C13.822 9.20792 13.5224 9.65629 13.318 10.1498C13.1136 10.6432 13.0084 11.1721 13.0084 11.7062C13.0084 12.2403 13.1136 12.7692 13.318 13.2627C13.5224 13.7561 13.822 14.2045 14.1996 14.5822C14.5773 14.9599 15.0257 15.2594 15.5191 15.4638C16.0126 15.6682 16.5415 15.7734 17.0756 15.7734L17.0756 11.7062L17.0756 7.63898Z" fill="#666666"/>
<path d="M17.0756 7.63898C17.6098 7.63898 18.1387 7.74419 18.6321 7.94858C19.1256 8.15298 19.5739 8.45257 19.9516 8.83025C20.3293 9.20792 20.6289 9.65629 20.8333 10.1498C21.0377 10.6432 21.1429 11.1721 21.1429 11.7062C21.1429 12.2403 21.0377 12.7692 20.8333 13.2627C20.6289 13.7561 20.3293 14.2045 19.9516 14.5822C19.5739 14.9599 19.1256 15.2594 18.6321 15.4638C18.1387 15.6682 17.6098 15.7734 17.0756 15.7734L17.0756 11.7062L17.0756 7.63898Z" fill="#333333"/>
<path d="M12.6387 19.4704C12.6387 18.2452 13.6319 17.252 14.8572 17.252H17.0756V28.3444H12.6387V19.4704Z" fill="#666666"/>
<path d="M21.5126 19.4704C21.5126 18.2452 20.5193 17.252 19.2941 17.252H17.0756V28.3444H21.5126V19.4704Z" fill="#333333"/>
</svg>
