<svg width="34" height="34" viewBox="0 0 34 34" fill="none" xmlns="http://www.w3.org/2000/svg">
<path d="M28.9076 9.63516C28.9076 5.75412 18.2527 10.5553 18.0102 11.5755C16.9724 15.9409 18.0102 26.1281 18.0102 26.1281C21.2967 25.643 27.9735 24.5758 28.3887 24.1877C28.8038 23.7997 28.9076 13.5162 28.9076 9.63516Z" fill="#333333"/>
<path d="M20.3885 13.8228C22.6603 12.5607 24.1748 12.2452 26.0679 11.9297" stroke="#808080" stroke-width="1.47899" stroke-linecap="round"/>
<path d="M20.3885 17.6089C22.6603 16.3469 24.1748 16.0313 26.0679 15.7158" stroke="#808080" stroke-width="1.47899" stroke-linecap="round"/>
<path d="M20.3885 21.3948C21.5244 20.7638 22.2817 20.606 23.2282 20.4482" stroke="#808080" stroke-width="1.47899" stroke-linecap="round"/>
<path d="M5.24376 9.63516C5.24376 5.75412 15.8986 10.5553 16.1412 11.5755C17.179 15.9409 16.1412 26.1281 16.1412 26.1281C12.8546 25.643 6.17782 24.5758 5.76269 24.1877C5.34755 23.7997 5.24376 13.5162 5.24376 9.63516Z" fill="#808080"/>
<path d="M13.7628 13.8228C11.4911 12.5607 9.9766 12.2452 8.08349 11.9297" stroke="#4D4D4D" stroke-width="1.47899" stroke-linecap="round"/>
<path d="M13.7628 17.6089C11.4911 16.3469 9.9766 16.0313 8.08349 15.7158" stroke="#4D4D4D" stroke-width="1.47899" stroke-linecap="round"/>
<path d="M13.7628 21.3948C12.627 20.7638 11.8697 20.606 10.9232 20.4482" stroke="#4D4D4D" stroke-width="1.47899" stroke-linecap="round"/>
</svg>
