<svg width="34" height="33" viewBox="0 0 34 33" fill="none" xmlns="http://www.w3.org/2000/svg">
<path d="M9.72266 14.79L9.72266 27.3615H7.50417L7.50417 17.0085C7.50417 15.7833 8.49742 14.79 9.72266 14.79V14.79Z" fill="#808080"/>
<path d="M9.72266 14.79L9.72266 27.3615H11.9411L11.9411 17.0085C11.9411 15.7833 10.9479 14.79 9.72266 14.79V14.79Z" fill="#4D4D4D"/>
<path d="M17.1176 4.4375V25.1434H14.8991L14.8991 6.65599C14.8991 5.43075 15.8923 4.4375 17.1176 4.4375V4.4375Z" fill="#808080"/>
<path d="M24.5126 9.61426V26.6227H22.2941V11.8327C22.2941 10.6075 23.2873 9.61426 24.5126 9.61426V9.61426Z" fill="#808080"/>
<path d="M5.28564 26.411C5.28564 25.4775 6.04241 24.7207 6.97593 24.7207H17.1177V28.1013H6.97593C6.04241 28.1013 5.28564 27.3445 5.28564 26.411V26.411Z" fill="#666666"/>
<path d="M17.1177 4.4375L17.1177 25.1434H19.3362L19.3362 6.65599C19.3362 5.43075 18.3429 4.4375 17.1177 4.4375V4.4375Z" fill="#4D4D4D"/>
<path d="M24.5126 9.61426L24.5126 26.6227H26.7311L26.7311 11.8327C26.7311 10.6075 25.7378 9.61426 24.5126 9.61426V9.61426Z" fill="#4D4D4D"/>
<path d="M28.9497 26.411C28.9497 25.4775 28.1929 24.7207 27.2594 24.7207H17.1177V28.1013H27.2594C28.1929 28.1013 28.9497 27.3445 28.9497 26.411V26.411Z" fill="#333333"/>
</svg>
