<svg width="34" height="34" viewBox="0 0 34 34" fill="none" xmlns="http://www.w3.org/2000/svg">
<path d="M8.05083 13.1038L17.282 5.41113V22.0635H16.4398C15.4528 22.0635 14.6527 22.8636 14.6527 23.8506V27.2879C14.6527 28.2749 13.8526 29.075 12.8656 29.075H10.339C8.36501 29.075 6.76477 27.4748 6.76477 25.5008V15.8496C6.76477 14.7888 7.23594 13.7829 8.05083 13.1038Z" fill="#666666"/>
<path d="M26.5133 13.1038L17.282 5.41113V22.0635H18.1242C19.1112 22.0635 19.9114 22.8636 19.9114 23.8506V27.2879C19.9114 28.2749 20.7115 29.075 21.6985 29.075H24.2251C26.1991 29.075 27.7993 27.4748 27.7993 25.5008V15.8496C27.7993 14.7888 27.3282 13.7829 26.5133 13.1038Z" fill="#333333"/>
<rect x="10.2705" y="14.1758" width="4.3822" height="5.25864" rx="0.893557" fill="#999999"/>
<rect x="19.9114" y="14.1758" width="4.3822" height="5.25864" rx="0.893557" fill="#666666"/>
</svg>
