<svg width="34" height="33" viewBox="0 0 34 33" fill="none" xmlns="http://www.w3.org/2000/svg">
<path d="M25.5535 13.1672V22.8504C25.5535 23.2589 25.2224 23.5899 24.814 23.5899H15.9595V12.4277H24.814C25.2224 12.4277 25.5535 12.7588 25.5535 13.1672Z" fill="#333333"/>
<path d="M5.69019 22.852V12.2588V10.0422C5.69019 9.63382 6.02127 9.30273 6.42968 9.30273H13.1096C13.3346 9.30273 13.5473 9.40515 13.6876 9.58101L15.9594 12.4282V23.5904H6.42968C6.02127 23.5904 5.69019 23.2604 5.69019 22.852Z" fill="#666666"/>
<path d="M8.73688 15.1178L5.66479 22.5685C5.46409 23.0553 5.82194 23.5899 6.34845 23.5899H16.1729L19.0848 14.6602H9.42054C9.12101 14.6602 8.85106 14.8408 8.73688 15.1178Z" fill="#999999"/>
<path d="M25.8488 23.1023L28.5484 15.6515C28.7231 15.1693 28.3659 14.6601 27.8531 14.6601H18.4248L15.513 23.5898H25.1536C25.4648 23.5898 25.7428 23.3949 25.8488 23.1023Z" fill="#808080"/>
</svg>
